<svg fill="none" viewBox="0 0 923 583" xmlns="http://www.w3.org/2000/svg">
<path d="m228 512.22 1.94-3.557 2.263-0.323 0.324 0.808-2.102 3.072h-2.425zm10.185-3.719 6.143 2.587 2.101-0.323 1.617-3.88-0.647-3.395-4.203-0.485-4.041 1.778-0.97 3.718zm30.715 10.023 3.718 5.497 2.425-0.323 1.132-0.485 1.455 1.293 3.718-0.162 0.97-1.455-2.91-1.778-1.94-3.718-2.101-3.557-5.82 2.91-0.647 1.778zm20.208 8.892 1.293-1.94 4.688 0.97 0.647-0.485 6.143 0.647-0.323 1.293-2.587 1.455-4.365-0.324-5.496-1.616zm5.335 5.173 1.94 3.88 3.071-1.132 0.324-1.616-1.617-2.102-3.718-0.323v1.293zm6.951-1.132 2.263-2.91 4.689 2.425 4.364 1.132 4.365 2.748v1.94l-3.556 1.778-4.85 0.97-2.425-1.454-4.85-6.629zm16.651 15.52 1.617-1.293 3.395 1.616 7.598 3.557 3.395 2.101 1.616 2.425 1.94 4.365 4.042 2.587-0.323 1.293-3.88 3.233-4.204 1.455-1.454-0.647-3.072 1.779-2.425 3.233-2.263 2.91-1.779-0.162-3.556-2.586-0.323-4.527 0.646-2.425-1.616-5.658-2.102-1.778-0.162-2.587 2.264-0.97 2.101-3.071 0.485-0.97-1.616-1.779-0.324-2.101z"/>
<path d="m153.08 446.68-0.324 85.357 1.617 0.97 3.072 0.162 1.454-1.132h2.587l0.162 2.91 6.951 6.79 0.485 2.586 3.395-1.94 0.647-0.161 0.323-3.072 1.455-1.616 1.132-0.162 1.94-1.455 3.071 2.102 0.647 2.91 1.94 1.131 1.131 2.425 3.88 1.778 3.395 5.982 2.748 3.88 2.264 2.748 1.455 3.718 5.011 1.778 5.173 2.102 0.97 4.365 0.485 3.071-0.97 3.395-1.778 2.264-1.617-0.809-1.455-3.071-2.748-1.455-1.778-1.132-0.809 0.808 1.455 2.749 0.162 3.718-1.132 0.485-1.939-1.94-2.102-1.293 0.485 1.616 1.293 1.779-0.808 0.808s-0.808-0.324-1.293-0.97c-0.485-0.647-2.102-3.395-2.102-3.395l-0.97-2.263s-0.323 1.293-0.97 0.97c-0.647-0.324-1.293-1.455-1.293-1.455l1.778-1.94-1.455-1.455v-5.012h-0.808l-0.808 3.395-1.132 0.485-0.97-3.718-0.647-3.718-0.808-0.485 0.323 5.658v1.132l-1.455-1.294-3.556-5.981-2.102-0.485-0.646-3.718-1.617-2.91-1.617-1.132v-2.263l2.102-1.293-0.485-0.324-2.587 0.647-3.395-2.425-2.586-2.91-4.85-2.587-4.041-2.586 1.293-3.233v-1.617l-1.778 1.617-2.91 1.131-3.719-1.131-5.658-2.425h-5.496l-0.647 0.485-6.466-3.88-2.102-0.323-2.748-5.82-3.557 0.323-3.556 1.455 0.485 4.527 1.131-2.91 0.97 0.323-1.455 4.365 3.234-2.748 0.646 1.616-3.88 4.365-1.293-0.323-0.485-1.94-1.293-0.809-1.293 1.132-2.749-1.778-3.071 2.101-1.779 2.102-3.394 2.102-4.689-0.162-0.485-2.102 3.719-0.646v-1.294l-2.264-0.646 0.97-2.425 2.264-3.88v-1.778l0.161-0.809 4.365-2.263 0.97 1.293h2.748l-1.293-2.586-3.718-0.323-5.012 2.748-2.425 3.395-1.778 2.586-1.1315 2.263-4.2032 1.455-3.0715 2.587-0.3234 1.617 2.2633 0.97 0.8083 2.101-2.7482 3.233-6.4665 4.204-7.7597 4.203-2.1016 1.131-5.3348 1.132-5.3349 2.263 1.7783 1.294-1.4549 1.455-0.485 1.131-2.7483-0.97-3.2332 0.162-0.8083 2.263h-0.97l0.3234-2.425-3.5566 1.293-2.9099 0.97-3.3949-1.293-2.9099 1.94h-3.2332l-2.1016 1.293-1.6166 0.809-2.1016-0.324-2.5866-1.131-2.2632 0.646-0.97 0.97-1.6166-1.131v-1.94l3.0715-1.294 6.3048 0.647 4.3649-1.616 2.1016-2.102 2.9099-0.647 1.7783-0.808 2.7482 0.162 1.6166 1.293 0.97-0.323 2.2632-2.749 3.0716-0.97 3.3949-0.646 1.2933-0.324 0.6466 0.485h0.8083l1.2933-3.718 4.0415-1.455 1.94-3.718 2.2632-4.526 1.6167-1.455 0.3233-2.587-1.6166 1.293-3.3949 0.647-0.6467-2.425-1.2933-0.323-0.9699 0.97-0.1617 2.91-1.455-0.162-1.4549-5.82-1.2933 1.293-1.1316-0.485-0.3233-1.94-4.0416 0.162-2.1016 1.132-2.5865-0.324 1.4549-1.454 0.485-2.587-0.6467-1.94 1.455-0.97 1.2933-0.162-0.6467-1.778v-4.365l-0.9699-0.97-0.8083 1.455h-6.1432l-1.4549-1.293-0.6467-3.88-2.1016-3.557v-0.969l2.1016-0.809 0.1617-2.101 1.1316-1.132-0.8083-0.485-1.2933 0.485-1.1316-2.748 0.97-5.012 4.5265-3.233 2.5866-1.617 1.9399-3.718 2.7482-1.293 2.5866 1.132 0.3234 2.425 2.4249-0.324 3.2332-2.425 1.6166 0.647 0.97 0.647h1.6166l2.2632-1.294 0.8084-4.365s0.3233-2.91 0.9699-3.394c0.6467-0.485 0.97-0.97 0.97-0.97l-1.1316-1.94-2.5866 0.808-3.2333 0.808-1.9399-0.485-3.5565-1.778-5.0115-0.162-3.5566-3.718 0.485-3.88 0.6467-2.425-2.1016-1.778-1.94-3.718 0.485-0.808 6.7898-0.485h2.1016l0.9699 0.97h0.6467l-0.1617-1.617 3.8799-0.647 2.5866 0.324 1.4549 1.131-1.4549 2.102-0.485 1.455 2.7482 1.616 5.0115 1.779 1.7783-0.97-2.2632-4.365-0.97-3.233 0.97-0.809-3.3949-1.94-0.485-1.131 0.485-1.617-0.8083-3.88-2.91-4.688-2.4249-4.203 2.9099-1.94h3.2333l1.7782 0.647 4.2032-0.162 3.7182-3.557 1.1317-3.071 3.7182-2.425 1.6166 0.97 2.7482-0.647 3.7182-2.101 1.1317-0.162 0.9699 0.808 4.5268-0.161 2.748-3.072h1.132l3.556 2.425 1.94 2.102-0.485 1.131 0.647 1.132 1.616-1.617 3.88 0.324 0.324 3.718 1.939 1.455 7.114 0.646 6.304 4.204 1.455-0.97 5.173 2.586 2.102-0.646 1.94-0.809 4.85 1.94 4.365 2.91zm-115.1 28.937 2.1016 5.335-0.1617 0.97-2.9099-0.323-1.7782-4.042-1.7783-1.455h-2.4249l-0.1617-2.586 1.7783-2.425 1.1316 2.425 1.455 1.455 2.7482 0.646zm-2.5866 33.464 3.7182 0.809 3.7182 0.969 0.8084 0.971-1.6167 3.718-3.0715-0.162-3.3949-3.556-0.1617-2.749zm-20.693-14.064 1.1316 2.586 1.1317 1.617-1.1317 0.808-2.1016-3.071v-1.94h0.97zm-13.741 73.071 3.3949-2.264 3.3949-0.97 2.5865 0.324 0.485 1.616 1.94 0.485 1.9399-1.94-0.3233-1.616 2.7482-0.647 2.9099 2.587-1.1316 1.778-4.3649 1.132-2.7482-0.485-3.7182-1.132-4.3649 1.455-1.6166 0.323-1.1316-0.646zm48.983-4.527 1.6167 1.94 2.1015-1.617-1.4549-1.293-2.2633 0.97zm2.9099 3.072 1.1317-2.264 2.1016 0.324-0.8083 1.94h-2.425zm23.603-1.94 1.4549 1.778 0.97-1.132-0.8083-1.94-1.6166 1.294zm8.7297-12.448 1.1316 5.82 2.9099 0.808 5.0115-2.91 4.3649-2.587-1.6166-2.424 0.4849-2.425-2.1016 1.293-2.9098-0.808 1.6166-1.132 1.9399 0.808 3.8799-1.778 0.4848-1.455-2.4248-0.808 0.8083-1.94-2.7482 1.94-4.6882 3.556-4.8498 2.91-1.2933 1.132zm42.355-19.885 2.425-1.454-0.97-1.779-1.778 0.97 0.323 2.263z"/>
<path d="m818.82 254.44 1.132 2.505 0.161 1.779 1.132 1.859s0.889-0.89 0.889-1.213-0.727-3.071-0.727-3.071l-0.728-2.344-1.859 0.485z"/>
<path d="m875.8 135.42 0.869-1.077 1.088-2.91 1.124-6.259 0.161-4.365 1.455-1.293-0.97-3.234 3.072-3.556 1.616 1.455 1.294-0.485 5.334-3.072 0.324-2.91 2.91-0.485 1.616-2.586-0.161-1.617-0.324-3.0713 0.809-1.2933-0.324-1.1316-1.293-1.455 2.102-1.2932 1.778 3.2332 1.455-0.3234 0.323 1.2933v1.6163l1.94 0.162 0.485-2.7482 0.485-0.6467-1.617-1.4549 0.97-1.455 2.425-1.4549 0.97-1.455 1.778-0.1616s0.324 2.1016 0.97 2.1016h1.294l4.85-5.4965 3.394-3.0715 1.94-0.6467 2.102-4.6881v-1.94l-2.263-3.7181-1.94-2.1016-2.748 0.1616 0.485 1.1316-0.162 0.485h-0.808l-2.91-2.2632-0.162-4.8498-0.808-1.94h-5.982l-9.053-29.907-1.94-0.97-5.981-2.4249-1.455-0.1617-1.778 1.7783-4.042 2.9099v0.9699l-0.808 0.8083-2.748-0.6466-1.294-2.2632v-1.1317l-1.293-0.1616h-1.293l-2.102 4.2031-2.91 8.8914-1.778 4.8498 0.162 4.8498 0.161 1.4549-0.808 2.7483-0.808 0.9699v5.9815l1.94 2.4249-1.455 4.0415-2.587 4.6881-1.308 4.4965v2.5866l-1.514-0.4099-1.42 0.1181m0.018-0.0415-0.897-0.0051-0.647 1.6166-0.647-0.4849-0.97-0.97-1.454 1.9399-0.049 5.0321m-291.49 11.882 0.719-0.594 2.75-0.812 3.531-2.25v-0.9692l0.656-0.6563 6-0.9687 2.406-1.9375 4.376-2.0938 0.156-1.3125 1.937-2.9062 1.781-0.8125 1.282-1.75 2.281-2.2813 4.344-2.4062 4.687-0.5 1.156 1.125-0.343 0.9687-3.719 0.9688-1.438 3.0937-2.281 0.7813-0.469 2.4375-2.437 3.25-0.313 2.5625 0.813 0.5 0.969-1.125 3.562-2.9063 1.282 1.2813h2.25l3.25 0.9687 1.437 1.125 1.469 3.063 2.75 2.75 3.875-0.157 1.469-0.968 1.593 1.312 1.625 0.469 1.282-0.813h1.156l1.594-0.968 4.062-3.563 3.375-1.125 6.656-0.3125 4.5-1.9375 2.594-1.3125 1.469 0.1875v5.6563l0.468 0.3125 2.907 0.8122 8.093-2.0935 1.126-1.1562 1.468 0.5v6.9377l3.219 3.094 1.313 0.625 1.281 0.968-1.281 0.344-0.813-0.344-3.719-0.468-2.125 0.625-2.25-0.157-3.219 1.469h-1.781l-5.843-1.312-5.157 0.187-1.937 2.563-6.969 0.656-2.406 0.812-1.125 3.063-1.313 1.125-0.469-0.156-1.468-1.594-4.532 2.406h-0.624l-1.157-1.625-0.781 0.188-1.969 4.343-0.969 4.063-3.156 7m73.188 67.937 0.156-0.593 0.156-1.438 2.094-3.719 2-1.75-0.219-5.062 1.594-1.594 1.094-0.344 0.219-3.531 1.531-3.031 1.062 0.594 0.157 0.656 0.812 0.156 1.938-0.969-0.313-9.531-3.25-8.25-2.25-9.062-2.437-3.219-2.594-1.781-1.594 1.125-3.906 1.781-1.938 5-2.75 3.719-1.125 0.656-1.437-0.656s-2.599-1.448-2.438-2.094c0.162-0.647 0.5-5 0.5-5l3.375-1.313 0.813-3.375 0.656-2.593 2.406-1.625-0.312-10.032-1.625-2.25-1.281-0.812-0.813-2.094 0.813-0.812 1.624 0.312 0.157-1.625-2.438-2.25-1.281-2.594h-2.594l-4.531-1.437-5.5-3.406h-2.75l-0.625 0.656-0.969-0.5-3.093-2.25-2.907 1.781-2.906 2.25 0.313 3.563 0.968 0.312 2.125 0.5 0.469 0.813-2.594 0.812-2.562 0.313-1.469 1.781-0.313 2.094 0.313 1.625 0.313 5.5-3.532 2.093-0.656-0.156v-4.219l1.281-2.406 0.657-2.437-0.813-0.813-1.937 0.813-0.969 4.218-2.75 1.125-1.781 1.938-0.157 0.969 0.657 0.812-0.657 2.594-2.25 0.469v1.125l0.781 2.437-1.124 6.125-1.594 4.063 0.625 4.687 0.5 1.125-0.813 2.438-0.312 0.781-0.344 2.75 3.562 6 2.907 6.469 1.469 4.843-0.813 4.688-0.969 5.969-2.437 5.187-0.313 2.75-3.14 2.991-2.829 1.617-2.102 1.94-1.131 0.324-1.455-0.97-3.312-0.696-0.273-0.921-0.808-2.587-1.293-3.718-1.617-1.778-1.455-2.587-0.233-5.489m244-97.89-26.042 6.6203-7.565 2.0714-4.526 1.455-3.234-0.162-5.496 1.293-3.081 1.246-2.416 1.826-2.101 2.425-2.748 3.718-2.91 4.526-1.455 2.91-0.647 0.809-5.82 5.496 0.162 2.587 0.808 1.131 1.779 0.809h1.778v1.455l-1.132 2.101 0.324 1.455 1.455 2.102-0.162 2.263-1.94 1.132h-2.102l-1.616 1.939-1.778 3.234-2.102 1.778-5.173 0.485-2.587 1.132-2.101 1.293-1.617-0.162-1.94-1.293-6.305 0.162-3.233 0.485-4.041 1.293-4.365 1.455-2.91 1.778 1.94 6.143 1.778 0.162 1.293 3.071 0.162 0.97-1.132 0.97-2.101 2.748-0.485 1.617-1.94 1.778-1.778 1.132-0.97 1.617-1.294 1.131-1.428 1.126m127.86-5.904 2.91-0.97 2.425-1.939 1.131-1.779 1.294 0.162 3.076-1.579 2.067-1-0.485-2.263 0.808-1.455 2.91-1.455 0.808 3.071-0.485 1.779-2.425 1.454v0.97l1.94-1.455 3.88-4.526 3.88-1.94 4.203-1.455-0.323-2.425-0.97-2.91-1.94-2.425-1.778-0.808-2.102 0.162-0.485 0.485 0.97 1.293 1.455-0.808 2.101 1.616 0.809 2.749-1.778 1.778-2.264 0.97-3.556-0.485-3.88-5.982-2.263-2.586h-1.779l-1.131 0.808-1.94-2.586 0.323-1.455 2.425-5.174-2.889-4.412m-134.78 42.469-5.362 5.068-1.294 0.485-4.202 3.009m94.114 41.67 4.849 2.263 4.042 0.647 0.161 1.455-0.808 0.969 0.324 2.749h0.808l2.101-2.425 0.809-4.85 2.748-4.042 3.072-6.466 1.131-5.496-0.646-1.132-0.162-9.376-1.617-3.395-1.131 0.808-2.749 0.323-0.485-0.485 1.132-0.97 2.102-1.939 0.063-1.094 1.182 0.831 4.041-1.132 5.82-1.94 2.587-0.97 10.993-8.244 3.395-3.557-4.204-1.617-1.293 1.455-2.91 2.749-7.921 3.879-2.263-0.161-1.617-0.647-1.132 0.647-2.263 2.586-1.455 1.294-1.293 0.323-0.323-1.293 1.94-1.779-0.739-1.767 4.271-3.906 3.557-3.233 1.94-2.101 0.808 0.646 2.748-1.455 5.174-1.131 7.794-3.179m-34.288 73.571-2.264-7.386-0.97 0.485-3.557-2.425-1.778-4.688-1.711-3.42m10.292 17.415 0.436 4.908-2.008 4.024-1.042 3.443-2.92 3.779-0.418 4.586 0.462 3.39-1.828 4.978-2.165 1.917-1.47-4.641 0.446-5.449 1.587-4.183 0.767-3.098-0.073-1.925-1.358-0.537-3.236-4.183-1.617 0.809-3.88-0.485-2.586-3.395 0.323-3.395 1.616-1.293-1.616-1.779-1.132 1.94-0.485 0.162-0.323-3.557 2.102-0.969-0.485-5.497-1.779-0.323-0.323-1.132 1.293-3.718 1.455-1.617-0.485-0.97-1.94 1.617-1.94 1.293s-0.485 1.455-0.485 2.102c0 0.646-1.455 2.263-1.455 2.263l1.294 1.293 0.161 2.102-1.293 5.335 2.102 5.496 2.425 2.102v1.778l1.455 2.102-0.97 2.101 0.562 3.095 3.191 0.402 0.868 1.2-0.44 4.69 1.375 1.103-0.479 1.93 1.23 0.79-0.222 1.385-2.694-0.095 0.089 1.615 2.281 1.543 0.121 1.412 1.773 1.785 0.492 2.525-2.553 1.381 1.572 1.494 5.801-1.686 3.608 6.012m-99.654-101.04-6.094 4.054-3.879 2.263-3.395 3.718-4.042 3.88-3.233 0.808-2.91 0.485-5.496 2.587-2.102 0.162-3.395-3.072-5.173 0.647-2.587-1.455-2.381-1.351-4.892 0.703m-70.68-9.388-0.067-3.158-1.179-4.526-0.647-6.143-1.131-2.425 0.97-3.072 0.808-2.91 1.455-2.586-0.647-3.395-0.646-3.557 0.485-1.778 1.94-2.425 0.161-2.748-0.808-1.293 0.647-2.587-0.453-4.171 2.748-5.658 2.91-6.789 0.162-2.264-0.323-0.97-0.809 0.485-4.203 6.305-2.748 4.042-1.94 1.778-0.808 2.263-1.955 0.808-1.132 1.94-1.455-0.323-0.162-1.778 1.294-2.425 2.101-4.688 1.779-1.617 0.99-2.358m-44.93-28.109-0.751 0.554-1.198-0.161-0.646-1.132-1.334 0.296-1.132 0.162-1.778 0.97-0.97-0.647 0.646-1.939 1.94-3.072 1.132-1.1316-1.94-1.455-2.102 0.8083-2.909 1.9399-7.437 3.2334-2.91 0.646-2.91-0.484-0.981-0.879m292.79 185.37 2.085 4.917 3.556 6.466 2.425 2.425 0.647 2.264-2.425 0.161 0.808 0.647-0.323 4.203-2.587 1.293-0.647 2.102-1.293 2.91-3.718 1.616-2.425-0.323-1.455-0.162-1.616-1.293 0.323 1.293v0.97h1.94l0.808 1.294-1.94 6.304h4.203l0.647 1.617 2.263-2.263 1.294-0.485-1.94 3.556-3.072 4.85h-1.293l-1.132-0.485-2.748 0.647-5.173 2.425-6.467 5.334-3.395 4.689-1.939 6.466-0.485 2.425-4.689 0.485-5.271 1.304-5.421 5.458-2.586 6.144-0.485 6.304-1.617 0.809-1.132 2.748-2.425 0.647-2.101 3.556-2.748 2.748-2.264 3.395-1.616 0.808-3.557 3.395-2.91 0.162 0.97 3.233-5.011 5.497-2.102 1.293 0.728 1.847-3.335 6.244 0.485 2.586-1.455 4.204-2.263 10.023 0.714 6.074 2.265 7.318 3.73 9.743 5.335 9.376 3.718 6.305 4.85 5.496 4.041 3.718 1.617 2.91-1.132 1.294-0.808 1.293 2.91 7.436 2.91 2.91 2.586 5.335 3.557 5.82 4.526 8.244 1.294 7.598 0.485 11.963 0.646 1.779-0.323 3.394-2.425 1.294 0.323 1.94-0.646 1.94 0.323 2.425 0.485 1.939-2.748 3.234-3.072 1.455-3.88 0.161-1.454 1.617-2.425 0.97-1.294-0.485-1.131-0.97-0.324-2.91-0.808-3.395-3.395-5.173-3.556-2.263-3.88-0.324-0.808 1.294-3.072-4.365-0.647-3.557-2.586-4.041-1.779-1.132-1.616 2.102-1.778-0.324-2.102-5.011-2.91-3.88-2.91-5.335-2.586-3.071-3.557-3.718 2.102-2.425 3.233-5.497-0.162-1.616-4.526-0.97-1.617 0.646 0.324 0.647 2.586 0.97-1.455 4.526-0.808 0.485-1.778-4.041-1.294-4.85-0.323-2.748 1.455-4.688v-9.538l-3.072-3.719-1.293-3.071-5.173-1.293-1.94-0.647-1.617-2.587-3.394-1.616-1.132-3.395-2.748-0.97-2.425-3.718-4.203-1.455-2.91-1.455h-2.587l-4.041 0.808-0.162 1.94 0.808 0.97-0.485 1.132-3.071-0.162-3.718 3.557-3.557 1.94h-3.88l-3.233 1.293-0.323-2.748-1.617-1.94-2.91-1.132-1.616-1.455-8.083-3.88-7.599-1.778-4.364 0.647-5.982 0.485-5.981 2.101-2.869 0.508-5.542 2.573-2.748-0.324 2.748-1.94v-0.97l-3.071-5.981-2.263-0.647-1.455 4.365-1.294 2.748-0.646-0.161-2.746 0.161-5.178 0.024-1.455-0.809-2.101-0.323-6.79 1.94-1.778-0.808-2.587 4.203-1.102 0.778m-84.3 14.755 4.687-1.521 12.113 0.207 10.346 3.557 6.467 1.132 3.718-1.455 3.233 1.131 3.233 0.97 0.809-2.101-3.234-1.132-2.586 0.485-2.748-1.617s0.161-1.293 0.808-1.455c0.647-0.161 3.071-0.97 3.071-0.97l1.779 1.455 1.778-0.97 3.233 0.647 1.455 2.425 0.323 2.263 4.527 0.324 1.778 1.778-0.808 1.616-1.293 0.809 1.616 1.616 8.407 3.557 3.556-1.293 0.97-2.425 2.587-0.647 1.778-1.455 1.293 0.97 0.808 2.91-2.263 0.808 0.647 0.647 3.395-1.293 2.263-3.395 0.808-0.485-2.101-0.324 0.808-1.616-0.162-1.455 2.102-0.485 1.132-1.293 0.646 0.808s-0.161 3.072 0.647 3.072 4.203 0.646 4.203 0.646l4.041 1.94 0.97 1.455h2.91l1.132 0.97 2.263-3.072v-1.455h-1.293l-3.395-2.748-5.82-0.808-3.233-2.263 1.132-2.749 2.263 0.324 0.162-0.647-1.779-0.97v-0.485h3.234l1.778-3.071-1.293-1.94-0.324-2.748-1.455 0.161-1.94 2.102-0.646 2.586-3.072-0.646-0.97-1.779 1.778-1.94 1.904-3.445m-67.689-356.98 4.328-2.7568 1.293-0.1616 4.527-5.0115 1.778-0.8083 2.263-3.8798 2.425-3.5566 3.072-2.5865 4.775-2.0069 9.245-4.0612 3.939-1.8371 0.612-2.2795-4.44 0.3707-0.713 1.0843h-0.647l-1.778-3.0716-8.892 0.3234-0.97 0.8083h-0.97l-0.485-1.2933-0.808-1.7783-2.586 0.485-3.234 3.2332-1.616 0.8083h-3.072l-2.586-0.97v-2.1015l-1.294-0.1617-0.485 0.485-2.586-1.2933-0.485-2.9099-1.455 0.485-0.485 0.9699-2.425-0.4849-5.335-2.4249-3.88-2.5866h-2.909l-1.294-0.97-2.263 0.6467-1.132 1.1316-0.323 1.2933h-4.85v-2.1016l-6.305-0.3233-0.323-1.455h-4.85l-1.616-1.6166-1.455-6.1431-0.809-5.4964-1.939-0.8083-2.264-0.485-0.646 0.1616-0.324 8.2447-30.244-0.0299-28.642-0.564-18.591-0.6467-26.512-1.2932-22.947-2.1339m156.82 423.37-5.665 1.585-9.862 4.526-0.97 1.94-2.586 1.94-2.102 1.455-1.293 0.808-5.658 5.335-2.748 2.102-5.335 3.233-5.658 2.425-6.305 3.395-1.778 1.455-5.82 3.556-3.395 0.647-3.88 5.496-4.041 0.324-0.97 1.94 2.263 1.939-1.455 5.497-1.293 4.526-1.132 3.88-0.808 4.527 0.808 2.425 1.778 6.951 0.97 6.143 1.779 2.748-0.97 1.455-3.072 1.94-5.658-3.88-5.496-1.131-1.294 0.485-3.233-0.647-4.203-3.071-5.173-1.132-7.598-3.395-2.102-3.88-1.293-6.466-3.233-1.94-0.647-2.263 0.647-0.647 0.323-3.395-1.293-0.647-0.647-0.97 1.293-4.364-1.616-2.264-3.234-1.293-3.394-4.365-3.557-6.628-4.203-2.586 0.162-1.94-5.335-12.287-0.809-4.203-1.778-1.94-0.161-1.455-5.982-5.334-2.586-3.072v-1.132l-2.587-2.101-6.79-1.132-7.436-0.646-3.072-2.264-4.526 1.779-3.557 1.455-2.263 3.233-0.97 3.718-4.365 6.143-2.425 2.425-2.586-0.97-1.779-1.132-1.939-0.646-3.88-2.263v-0.647l-1.779-1.94-5.173-2.102-7.436-7.759-2.263-4.688v-8.083l-3.234-6.467-0.485-2.748-1.616-0.97-1.132-2.102-5.011-2.101-1.294-1.617-7.113-7.921-1.293-3.233-4.688-2.264-1.455-4.365-2.587-2.909-1.936-0.401-29.233-2.829-1.293 10.023-15.461-1.989m127.04-372.25-30.675-2.8079-29.26-3.5565-29.261-4.0415-32.332-5.3348-18.429-3.3949-32.724-6.9327m-13.587-2.5333 13.518 2.5281m45.786 398.31-24.951-2.705-12.287-2.425-16.812-10.023-14.711-8.568-12.125-7.598-18.914-10.67-0.485-0.97 0.323-1.455 2.627-2.158 3.772-0.914m-79.588-320.12-2.2983 0.8505-2.2632 6.4664-3.2333 10.023-3.2332 6.4664-5.0114 14.064-6.4665 13.58-8.083 12.609-1.9399 2.91-0.8083 8.568 0.3861 12.08m32.951-87.618 0.0547-0.0222m-0.0547 0.0222-2.2633-3.2192 0.3234-2.9099 2.7482-0.3233 1.6166-4.0415-2.5866-1.1316 0.1617-3.7182 4.3648-0.6467-2.7482-2.7482-1.455-7.1131 0.6467-2.9099v-7.9213l-1.7783-3.2332 2.2633-9.3763 2.1015 0.48498 2.425 2.9099 2.7482 2.5866 3.2332 1.9399 4.5265 2.1016 3.0715 0.6467 2.9099 1.4549 3.3949 0.97 2.2633-0.1617v-2.4249l1.2932-1.1316 2.1016-1.2933 0.3233 1.1316 0.3234 1.7783-2.2633 0.485-0.3233 2.1015 1.7783 1.455 1.1316 2.4249 0.6466 1.9399 1.455-0.1616 0.1616-1.2933-0.9699-1.2933-0.485-3.2332 0.8083-1.7783-0.6467-1.4549v-2.2633l1.7783-3.5565-1.1316-2.5866-2.4249-4.8498 0.3233-0.8083 1.1316-0.8083 4.3648 1.4549 9.7 2.7482 8.568 1.9399 20.046 5.6581 22.955 5.6581 15.223 3.2072m-34.296 353.43-3.94 0.488-13.845-1.35-19.722-2.748-10.023-1.455-0.485-1.778v-9.376l-0.3233-3.233-2.5866-4.204-0.8083-2.263-3.8799-4.203-3.1599 1.687-2.7482-0.162-3.2332-0.808-0.3233-0.97 1.4549-0.647-0.6466-3.233-1.455-2.102-4.8498-0.808-3.8798-2.101-1.1317-2.264-2.5865-4.85-2.9099-3.071h-2.9099l-3.8798-2.102-4.5265-1.778-4.2032-0.485-2.4249-2.748 2.2632-9.053 0.8083-1.94v-2.425l-1.6166-0.97-0.485-2.91-1.4549-2.586-3.3949-5.82-1.2933-3.072-1.4549-4.688-1.6166-5.335-3.2332-4.364-0.485-2.91 0.8083-3.88h1.1316l2.1016-1.617 1.1316-3.556-0.9699-2.749-2.7482-0.485-1.94-2.586-2.1016-3.718-0.1616-8.245 0.6466-1.94 0.6467-2.263 0.4849-2.425-5.6581-6.305v-2.101l0.3233-0.485 0.3234-3.234-1.2933-4.041-2.2633-4.85-2.7482-4.526-1.7783-3.88 0.97-3.718 0.6467-5.82 1.7782-3.072 0.3233-6.466-1.1316-3.557-1.6166-4.203-2.7482-4.203 0.8083-3.233 1.4549-4.203 1.7783-0.809 0.3233-1.131 3.0716-2.587 5.1731-11.801 0.1617-7.437 1.5069-4.733m787.74 112.23 1.132 2.505 0.161 1.779 1.132 1.859s0.889-0.89 0.889-1.213-0.727-3.071-0.727-3.071l-0.728-2.344-1.859 0.485z"/>
<path d="m51.559 331.48 1.2933 1.536-0.1617 1.293-3.2332-0.08-0.5658-1.213-0.6467-1.455 3.3141-0.081zm1.9399 0 1.2125-0.646 3.5565 2.101 3.0716 1.213-0.8892 0.646-4.5265-0.242-1.6166-1.617-0.8083-1.455zm20.693 19.804 1.7783 2.344 0.8083 0.97 1.5358 0.566 0.5658-1.455-0.97-1.779-2.6674-2.02-1.0508 0.161v1.213zm-1.4549 8.649 1.7783 3.152 1.2124 1.94-1.4549 0.242-1.2933-1.212s-0.7275-1.455-0.7275-1.859v-2.182l0.485-0.081z"/>
<path d="m456.69 553.21-0.566-7.113-2.748-7.194-0.566-7.032 1.536-8.245 3.314-6.871 3.476-5.415 3.152-3.557 0.647 0.243-4.769 6.628-4.365 6.547-2.021 6.628-0.323 5.173 0.889 6.143 2.586 7.194 0.485 5.173 0.162 1.455-0.889 0.243z"/>
<path d="m767.36 564.55 2.425-0.647 1.294-0.242 1.454-2.344 2.345-1.617 1.293 0.485 1.697 0.323 0.404 1.051-3.475 1.213-4.203 1.455-2.345 1.212-0.889-0.889zm13.499-5.012 1.212 1.051 2.749-2.101 5.334-4.204 3.719-3.879 2.505-6.629 0.97-1.697 0.162-3.395-0.727 0.485-0.97 2.829-1.455 4.608-3.234 5.253-4.364 4.204-3.395 1.94-2.506 1.535z"/>
<path d="m834.25 320.52 2.587-2.506 3.152-2.586 1.536-0.647 0.162-2.021-0.647-6.143-1.455-2.344-0.647-1.859 0.728-0.242 2.748 5.496 0.404 4.446-0.161 3.395-3.395 1.535-2.829 2.425-1.132 1.213-1.051-0.162z"/>
<path d="m894.62 166.25 2.171-0.686 0.458-1.715 1.029 0.115 1.028 2.286-1.257 0.457-3.887 0.115 0.458-0.572zm-9.374 0.8 2.286-2.629h1.601l1.829 1.486-2.401 1.029-2.172 1.029-1.143-0.915z"/>
<path d="m898.44 100.44-1.536 1.535 1.778 2.829 1.698-0.889-0.566-2.425-1.374-1.05z"/>
<path d="m905.4 97.937-1.778-1.8591 1.374-2.2633 2.021-0.7275 0.808 1.7783-0.889 0.8083s-0.242 1.6974-0.242 2.0207c0 0.3234-1.294 0.2426-1.294 0.2426z"/>
<path d="m665.94 105.16-2.188 0.25-1.594 0.156-0.343 1.126 0.968 0.5 0.657 2.5 3.25 0.156 1.281-1.188s-0.083-1.463-0.406-1.625c-0.324-0.161-1.625-1.875-1.625-1.875z"/>
<path d="m586 68.312 2.281-0.5625 0.469 0.4375-5.156 5.1563-3.313 1.9374-2.062 0.9063-1.594-1.125 1.813-2.0625 2.187-0.8125 5.375-3.875z"/>
<path d="m87.617 6.5907 2.0208-0.16166 0.4849 1.3741 1.5358-1.6166h2.3441l0.8083 1.5358-1.5358 1.6974 0.6467 0.80836-0.7275 2.0207-1.3741 0.4042s-0.8892 0.0808-0.8892-0.2425 1.455-2.5866 1.455-2.5866l-1.6974-0.56582-0.3234 1.4549-0.7274 0.6467-1.5358-2.2633-0.485-2.5057z"/>
</svg>
