<svg width="923" height="583" viewBox="0 0 923 583" fill="none" xmlns="http://www.w3.org/2000/svg">
<path id="CA" d="M70.4476 268.551C72.4567 266.036 77.0389 259.942 77.0389 256.519C77.0389 252.368 73.6708 249 69.5195 249C65.3681 249 62 252.368 62 256.519C62 259.942 66.5822 266.036 68.5913 268.551C69.073 269.15 69.9659 269.15 70.4476 268.551ZM69.5195 254.013C70.1842 254.013 70.8218 254.277 71.2918 254.747C71.7619 255.217 72.0259 255.855 72.0259 256.519C72.0259 257.184 71.7619 257.822 71.2918 258.292C70.8218 258.762 70.1842 259.026 69.5195 259.026C68.8547 259.026 68.2172 258.762 67.7471 258.292C67.277 257.822 67.013 257.184 67.013 256.519C67.013 255.855 67.277 255.217 67.7471 254.747C68.2172 254.277 68.8547 254.013 69.5195 254.013Z" fill="black"/>
<path id="OR" d="M101.448 128.551C103.457 126.036 108.039 119.942 108.039 116.519C108.039 112.368 104.671 109 100.519 109C96.3681 109 93 112.368 93 116.519C93 119.942 97.5822 126.036 99.5913 128.551C100.073 129.15 100.966 129.15 101.448 128.551ZM100.519 114.013C101.184 114.013 101.822 114.277 102.292 114.747C102.762 115.217 103.026 115.855 103.026 116.519C103.026 117.184 102.762 117.822 102.292 118.292C101.822 118.762 101.184 119.026 100.519 119.026C99.8547 119.026 99.2172 118.762 98.7471 118.292C98.277 117.822 98.013 117.184 98.013 116.519C98.013 115.855 98.277 115.217 98.7471 114.747C99.2172 114.277 99.8547 114.013 100.519 114.013Z" fill="black"/>
<path id="WA" d="M122.448 55.5506C124.457 53.0363 129.039 46.9424 129.039 43.5195C129.039 39.3681 125.671 36 121.519 36C117.368 36 114 39.3681 114 43.5195C114 46.9424 118.582 53.0363 120.591 55.5506C121.073 56.1498 121.966 56.1498 122.448 55.5506ZM121.519 41.013C122.184 41.013 122.822 41.277 123.292 41.7471C123.762 42.2172 124.026 42.8547 124.026 43.5195C124.026 44.1842 123.762 44.8218 123.292 45.2918C122.822 45.7619 122.184 46.0259 121.519 46.0259C120.855 46.0259 120.217 45.7619 119.747 45.2918C119.277 44.8218 119.013 44.1842 119.013 43.5195C119.013 42.8547 119.277 42.2172 119.747 41.7471C120.217 41.277 120.855 41.013 121.519 41.013Z" fill="black"/>
<path id="ID" d="M187.448 144.551C189.457 142.036 194.039 135.942 194.039 132.519C194.039 128.368 190.671 125 186.519 125C182.368 125 179 128.368 179 132.519C179 135.942 183.582 142.036 185.591 144.551C186.073 145.15 186.966 145.15 187.448 144.551ZM186.519 130.013C187.184 130.013 187.822 130.277 188.292 130.747C188.762 131.217 189.026 131.855 189.026 132.519C189.026 133.184 188.762 133.822 188.292 134.292C187.822 134.762 187.184 135.026 186.519 135.026C185.855 135.026 185.217 134.762 184.747 134.292C184.277 133.822 184.013 133.184 184.013 132.519C184.013 131.855 184.277 131.217 184.747 130.747C185.217 130.277 185.855 130.013 186.519 130.013Z" fill="black"/>
<path id="MT" d="M277.448 89.5506C279.457 87.0363 284.039 80.9424 284.039 77.5195C284.039 73.3681 280.671 70 276.519 70C272.368 70 269 73.3681 269 77.5195C269 80.9424 273.582 87.0363 275.591 89.5506C276.073 90.1498 276.966 90.1498 277.448 89.5506ZM276.519 75.013C277.184 75.013 277.822 75.277 278.292 75.7471C278.762 76.2172 279.026 76.8547 279.026 77.5195C279.026 78.1842 278.762 78.8218 278.292 79.2918C277.822 79.7619 277.184 80.0259 276.519 80.0259C275.855 80.0259 275.217 79.7619 274.747 79.2918C274.277 78.8218 274.013 78.1842 274.013 77.5195C274.013 76.8547 274.277 76.2172 274.747 75.7471C275.217 75.277 275.855 75.013 276.519 75.013Z" fill="black"/>
<path id="ND" d="M412.448 94.5506C414.457 92.0363 419.039 85.9424 419.039 82.5195C419.039 78.3681 415.671 75 411.519 75C407.368 75 404 78.3681 404 82.5195C404 85.9424 408.582 92.0363 410.591 94.5506C411.073 95.1498 411.966 95.1498 412.448 94.5506ZM411.519 80.013C412.184 80.013 412.822 80.277 413.292 80.7471C413.762 81.2172 414.026 81.8547 414.026 82.5195C414.026 83.1842 413.762 83.8218 413.292 84.2918C412.822 84.7619 412.184 85.0259 411.519 85.0259C410.855 85.0259 410.217 84.7619 409.747 84.2918C409.277 83.8218 409.013 83.1842 409.013 82.5195C409.013 81.8547 409.277 81.2172 409.747 80.7471C410.217 80.277 410.855 80.013 411.519 80.013Z" fill="black"/>
<path id="SD" d="M412.448 158.551C414.457 156.036 419.039 149.942 419.039 146.519C419.039 142.368 415.671 139 411.519 139C407.368 139 404 142.368 404 146.519C404 149.942 408.582 156.036 410.591 158.551C411.073 159.15 411.966 159.15 412.448 158.551ZM411.519 144.013C412.184 144.013 412.822 144.277 413.292 144.747C413.762 145.217 414.026 145.855 414.026 146.519C414.026 147.184 413.762 147.822 413.292 148.292C412.822 148.762 412.184 149.026 411.519 149.026C410.855 149.026 410.217 148.762 409.747 148.292C409.277 147.822 409.013 147.184 409.013 146.519C409.013 145.855 409.277 145.217 409.747 144.747C410.217 144.277 410.855 144.013 411.519 144.013Z" fill="black"/>
<path id="NV" d="M137.448 239.551C139.457 237.036 144.039 230.942 144.039 227.519C144.039 223.368 140.671 220 136.519 220C132.368 220 129 223.368 129 227.519C129 230.942 133.582 237.036 135.591 239.551C136.073 240.15 136.966 240.15 137.448 239.551ZM136.519 225.013C137.184 225.013 137.822 225.277 138.292 225.747C138.762 226.217 139.026 226.855 139.026 227.519C139.026 228.184 138.762 228.822 138.292 229.292C137.822 229.762 137.184 230.026 136.519 230.026C135.855 230.026 135.217 229.762 134.747 229.292C134.277 228.822 134.013 228.184 134.013 227.519C134.013 226.855 134.277 226.217 134.747 225.747C135.217 225.277 135.855 225.013 136.519 225.013Z" fill="black"/>
<path id="UT" d="M220.448 254.551C222.457 252.036 227.039 245.942 227.039 242.519C227.039 238.368 223.671 235 219.519 235C215.368 235 212 238.368 212 242.519C212 245.942 216.582 252.036 218.591 254.551C219.073 255.15 219.966 255.15 220.448 254.551ZM219.519 240.013C220.184 240.013 220.822 240.277 221.292 240.747C221.762 241.217 222.026 241.855 222.026 242.519C222.026 243.184 221.762 243.822 221.292 244.292C220.822 244.762 220.184 245.026 219.519 245.026C218.855 245.026 218.217 244.762 217.747 244.292C217.277 243.822 217.013 243.184 217.013 242.519C217.013 241.855 217.277 241.217 217.747 240.747C218.217 240.277 218.855 240.013 219.519 240.013Z" fill="black"/>
<path id="WY" d="M296.448 178.551C298.457 176.036 303.039 169.942 303.039 166.519C303.039 162.368 299.671 159 295.519 159C291.368 159 288 162.368 288 166.519C288 169.942 292.582 176.036 294.591 178.551C295.073 179.15 295.966 179.15 296.448 178.551ZM295.519 164.013C296.184 164.013 296.822 164.277 297.292 164.747C297.762 165.217 298.026 165.855 298.026 166.519C298.026 167.184 297.762 167.822 297.292 168.292C296.822 168.762 296.184 169.026 295.519 169.026C294.855 169.026 294.217 168.762 293.747 168.292C293.277 167.822 293.013 167.184 293.013 166.519C293.013 165.855 293.277 165.217 293.747 164.747C294.217 164.277 294.855 164.013 295.519 164.013Z" fill="black"/>
<path id="CO" d="M311.448 274.551C313.457 272.036 318.039 265.942 318.039 262.519C318.039 258.368 314.671 255 310.519 255C306.368 255 303 258.368 303 262.519C303 265.942 307.582 272.036 309.591 274.551C310.073 275.15 310.966 275.15 311.448 274.551ZM310.519 260.013C311.184 260.013 311.822 260.277 312.292 260.747C312.762 261.217 313.026 261.855 313.026 262.519C313.026 263.184 312.762 263.822 312.292 264.292C311.822 264.762 311.184 265.026 310.519 265.026C309.855 265.026 309.217 264.762 308.747 264.292C308.277 263.822 308.013 263.184 308.013 262.519C308.013 261.855 308.277 261.217 308.747 260.747C309.217 260.277 309.855 260.013 310.519 260.013Z" fill="black"/>
<path id="NE" d="M412.448 222.551C414.457 220.036 419.039 213.942 419.039 210.519C419.039 206.368 415.671 203 411.519 203C407.368 203 404 206.368 404 210.519C404 213.942 408.582 220.036 410.591 222.551C411.073 223.15 411.966 223.15 412.448 222.551ZM411.519 208.013C412.184 208.013 412.822 208.277 413.292 208.747C413.762 209.217 414.026 209.855 414.026 210.519C414.026 211.184 413.762 211.822 413.292 212.292C412.822 212.762 412.184 213.026 411.519 213.026C410.855 213.026 410.217 212.762 409.747 212.292C409.277 211.822 409.013 211.184 409.013 210.519C409.013 209.855 409.277 209.217 409.747 208.747C410.217 208.277 410.855 208.013 411.519 208.013Z" fill="black"/>
<path id="KS" d="M427.448 284.551C429.457 282.036 434.039 275.942 434.039 272.519C434.039 268.368 430.671 265 426.519 265C422.368 265 419 268.368 419 272.519C419 275.942 423.582 282.036 425.591 284.551C426.073 285.15 426.966 285.15 427.448 284.551ZM426.519 270.013C427.184 270.013 427.822 270.277 428.292 270.747C428.762 271.217 429.026 271.855 429.026 272.519C429.026 273.184 428.762 273.822 428.292 274.292C427.822 274.762 427.184 275.026 426.519 275.026C425.855 275.026 425.217 274.762 424.747 274.292C424.277 273.822 424.013 273.184 424.013 272.519C424.013 271.855 424.277 271.217 424.747 270.747C425.217 270.277 425.855 270.013 426.519 270.013Z" fill="black"/>
<path id="NM" d="M296.448 364.551C298.457 362.036 303.039 355.942 303.039 352.519C303.039 348.368 299.671 345 295.519 345C291.368 345 288 348.368 288 352.519C288 355.942 292.582 362.036 294.591 364.551C295.073 365.15 295.966 365.15 296.448 364.551ZM295.519 350.013C296.184 350.013 296.822 350.277 297.292 350.747C297.762 351.217 298.026 351.855 298.026 352.519C298.026 353.184 297.762 353.822 297.292 354.292C296.822 354.762 296.184 355.026 295.519 355.026C294.855 355.026 294.217 354.762 293.747 354.292C293.277 353.822 293.013 353.184 293.013 352.519C293.013 351.855 293.277 351.217 293.747 350.747C294.217 350.277 294.855 350.013 295.519 350.013Z" fill="black"/>
<path id="AZ" d="M195.448 354.551C197.457 352.036 202.039 345.942 202.039 342.519C202.039 338.368 198.671 335 194.519 335C190.368 335 187 338.368 187 342.519C187 345.942 191.582 352.036 193.591 354.551C194.073 355.15 194.966 355.15 195.448 354.551ZM194.519 340.013C195.184 340.013 195.822 340.277 196.292 340.747C196.762 341.217 197.026 341.855 197.026 342.519C197.026 343.184 196.762 343.822 196.292 344.292C195.822 344.762 195.184 345.026 194.519 345.026C193.855 345.026 193.217 344.762 192.747 344.292C192.277 343.822 192.013 343.184 192.013 342.519C192.013 341.855 192.277 341.217 192.747 340.747C193.217 340.277 193.855 340.013 194.519 340.013Z" fill="black"/>
<path id="OK" d="M454.448 354.551C456.457 352.036 461.039 345.942 461.039 342.519C461.039 338.368 457.671 335 453.519 335C449.368 335 446 338.368 446 342.519C446 345.942 450.582 352.036 452.591 354.551C453.073 355.15 453.966 355.15 454.448 354.551ZM453.519 340.013C454.184 340.013 454.822 340.277 455.292 340.747C455.762 341.217 456.026 341.855 456.026 342.519C456.026 343.184 455.762 343.822 455.292 344.292C454.822 344.762 454.184 345.026 453.519 345.026C452.855 345.026 452.217 344.762 451.747 344.292C451.277 343.822 451.013 343.184 451.013 342.519C451.013 341.855 451.277 341.217 451.747 340.747C452.217 340.277 452.855 340.013 453.519 340.013Z" fill="black"/>
<path id="TX" d="M420.448 442.551C422.457 440.036 427.039 433.942 427.039 430.519C427.039 426.368 423.671 423 419.519 423C415.368 423 412 426.368 412 430.519C412 433.942 416.582 440.036 418.591 442.551C419.073 443.15 419.966 443.15 420.448 442.551ZM419.519 428.013C420.184 428.013 420.822 428.277 421.292 428.747C421.762 429.217 422.026 429.855 422.026 430.519C422.026 431.184 421.762 431.822 421.292 432.292C420.822 432.762 420.184 433.026 419.519 433.026C418.855 433.026 418.217 432.762 417.747 432.292C417.277 431.822 417.013 431.184 417.013 430.519C417.013 429.855 417.277 429.217 417.747 428.747C418.217 428.277 418.855 428.013 419.519 428.013Z" fill="black"/>
<path id="HI" d="M328.448 562.551C330.457 560.036 335.039 553.942 335.039 550.519C335.039 546.368 331.671 543 327.519 543C323.368 543 320 546.368 320 550.519C320 553.942 324.582 560.036 326.591 562.551C327.073 563.15 327.966 563.15 328.448 562.551ZM327.519 548.013C328.184 548.013 328.822 548.277 329.292 548.747C329.762 549.217 330.026 549.855 330.026 550.519C330.026 551.184 329.762 551.822 329.292 552.292C328.822 552.762 328.184 553.026 327.519 553.026C326.855 553.026 326.217 552.762 325.747 552.292C325.277 551.822 325.013 551.184 325.013 550.519C325.013 549.855 325.277 549.217 325.747 548.747C326.217 548.277 326.855 548.013 327.519 548.013Z" fill="black"/>
<path id="AK" d="M113.448 495.551C115.457 493.036 120.039 486.942 120.039 483.519C120.039 479.368 116.671 476 112.519 476C108.368 476 105 479.368 105 483.519C105 486.942 109.582 493.036 111.591 495.551C112.073 496.15 112.966 496.15 113.448 495.551ZM112.519 481.013C113.184 481.013 113.822 481.277 114.292 481.747C114.762 482.217 115.026 482.855 115.026 483.519C115.026 484.184 114.762 484.822 114.292 485.292C113.822 485.762 113.184 486.026 112.519 486.026C111.855 486.026 111.217 485.762 110.747 485.292C110.277 484.822 110.013 484.184 110.013 483.519C110.013 482.855 110.277 482.217 110.747 481.747C111.217 481.277 111.855 481.013 112.519 481.013Z" fill="black"/>
<path id="LA" d="M548.448 442.551C550.457 440.036 555.039 433.942 555.039 430.519C555.039 426.368 551.671 423 547.519 423C543.368 423 540 426.368 540 430.519C540 433.942 544.582 440.036 546.591 442.551C547.073 443.15 547.966 443.15 548.448 442.551ZM547.519 428.013C548.184 428.013 548.822 428.277 549.292 428.747C549.762 429.217 550.026 429.855 550.026 430.519C550.026 431.184 549.762 431.822 549.292 432.292C548.822 432.762 548.184 433.026 547.519 433.026C546.855 433.026 546.217 432.762 545.747 432.292C545.277 431.822 545.013 431.184 545.013 430.519C545.013 429.855 545.277 429.217 545.747 428.747C546.217 428.277 546.855 428.013 547.519 428.013Z" fill="black"/>
<path id="AR" d="M544.448 370.551C546.457 368.036 551.039 361.942 551.039 358.519C551.039 354.368 547.671 351 543.519 351C539.368 351 536 354.368 536 358.519C536 361.942 540.582 368.036 542.591 370.551C543.073 371.15 543.966 371.15 544.448 370.551ZM543.519 356.013C544.184 356.013 544.822 356.277 545.292 356.747C545.762 357.217 546.026 357.855 546.026 358.519C546.026 359.184 545.762 359.822 545.292 360.292C544.822 360.762 544.184 361.026 543.519 361.026C542.855 361.026 542.217 360.762 541.747 360.292C541.277 359.822 541.013 359.184 541.013 358.519C541.013 357.855 541.277 357.217 541.747 356.747C542.217 356.277 542.855 356.013 543.519 356.013Z" fill="black"/>
<path id="MO" d="M533.448 294.551C535.457 292.036 540.039 285.942 540.039 282.519C540.039 278.368 536.671 275 532.519 275C528.368 275 525 278.368 525 282.519C525 285.942 529.582 292.036 531.591 294.551C532.073 295.15 532.966 295.15 533.448 294.551ZM532.519 280.013C533.184 280.013 533.822 280.277 534.292 280.747C534.762 281.217 535.026 281.855 535.026 282.519C535.026 283.184 534.762 283.822 534.292 284.292C533.822 284.762 533.184 285.026 532.519 285.026C531.855 285.026 531.217 284.762 530.747 284.292C530.277 283.822 530.013 283.184 530.013 282.519C530.013 281.855 530.277 281.217 530.747 280.747C531.217 280.277 531.855 280.013 532.519 280.013Z" fill="black"/>
<path id="IA" d="M518.448 212.551C520.457 210.036 525.039 203.942 525.039 200.519C525.039 196.368 521.671 193 517.519 193C513.368 193 510 196.368 510 200.519C510 203.942 514.582 210.036 516.591 212.551C517.073 213.15 517.966 213.15 518.448 212.551ZM517.519 198.013C518.184 198.013 518.822 198.277 519.292 198.747C519.762 199.217 520.026 199.855 520.026 200.519C520.026 201.184 519.762 201.822 519.292 202.292C518.822 202.762 518.184 203.026 517.519 203.026C516.855 203.026 516.217 202.762 515.747 202.292C515.277 201.822 515.013 201.184 515.013 200.519C515.013 199.855 515.277 199.217 515.747 198.747C516.217 198.277 516.855 198.013 517.519 198.013Z" fill="black"/>
<path id="WI" d="M573.448 158.551C575.457 156.036 580.039 149.942 580.039 146.519C580.039 142.368 576.671 139 572.519 139C568.368 139 565 142.368 565 146.519C565 149.942 569.582 156.036 571.591 158.551C572.073 159.15 572.966 159.15 573.448 158.551ZM572.519 144.013C573.184 144.013 573.822 144.277 574.292 144.747C574.762 145.217 575.026 145.855 575.026 146.519C575.026 147.184 574.762 147.822 574.292 148.292C573.822 148.762 573.184 149.026 572.519 149.026C571.855 149.026 571.217 148.762 570.747 148.292C570.277 147.822 570.013 147.184 570.013 146.519C570.013 145.855 570.277 145.217 570.747 144.747C571.217 144.277 571.855 144.013 572.519 144.013Z" fill="black"/>
<path id="IL" d="M588.448 248.551C590.457 246.036 595.039 239.942 595.039 236.519C595.039 232.368 591.671 229 587.519 229C583.368 229 580 232.368 580 236.519C580 239.942 584.582 246.036 586.591 248.551C587.073 249.15 587.966 249.15 588.448 248.551ZM587.519 234.013C588.184 234.013 588.822 234.277 589.292 234.747C589.762 235.217 590.026 235.855 590.026 236.519C590.026 237.184 589.762 237.822 589.292 238.292C588.822 238.762 588.184 239.026 587.519 239.026C586.855 239.026 586.217 238.762 585.747 238.292C585.277 237.822 585.013 237.184 585.013 236.519C585.013 235.855 585.277 235.217 585.747 234.747C586.217 234.277 586.855 234.013 587.519 234.013Z" fill="black"/>
<path id="IN" d="M641.448 254.551C643.457 252.036 648.039 245.942 648.039 242.519C648.039 238.368 644.671 235 640.519 235C636.368 235 633 238.368 633 242.519C633 245.942 637.582 252.036 639.591 254.551C640.073 255.15 640.966 255.15 641.448 254.551ZM640.519 240.013C641.184 240.013 641.822 240.277 642.292 240.747C642.762 241.217 643.026 241.855 643.026 242.519C643.026 243.184 642.762 243.822 642.292 244.292C641.822 244.762 641.184 245.026 640.519 245.026C639.855 245.026 639.217 244.762 638.747 244.292C638.277 243.822 638.013 243.184 638.013 242.519C638.013 241.855 638.277 241.217 638.747 240.747C639.217 240.277 639.855 240.013 640.519 240.013Z" fill="black"/>
<path id="MI" d="M654.448 174.551C656.457 172.036 661.039 165.942 661.039 162.519C661.039 158.368 657.671 155 653.519 155C649.368 155 646 158.368 646 162.519C646 165.942 650.582 172.036 652.591 174.551C653.073 175.15 653.966 175.15 654.448 174.551ZM653.519 160.013C654.184 160.013 654.822 160.277 655.292 160.747C655.762 161.217 656.026 161.855 656.026 162.519C656.026 163.184 655.762 163.822 655.292 164.292C654.822 164.762 654.184 165.026 653.519 165.026C652.855 165.026 652.217 164.762 651.747 164.292C651.277 163.822 651.013 163.184 651.013 162.519C651.013 161.855 651.277 161.217 651.747 160.747C652.217 160.277 652.855 160.013 653.519 160.013Z" fill="black"/>
<path id="OH" d="M694.448 234.551C696.457 232.036 701.039 225.942 701.039 222.519C701.039 218.368 697.671 215 693.519 215C689.368 215 686 218.368 686 222.519C686 225.942 690.582 232.036 692.591 234.551C693.073 235.15 693.966 235.15 694.448 234.551ZM693.519 220.013C694.184 220.013 694.822 220.277 695.292 220.747C695.762 221.217 696.026 221.855 696.026 222.519C696.026 223.184 695.762 223.822 695.292 224.292C694.822 224.762 694.184 225.026 693.519 225.026C692.855 225.026 692.217 224.762 691.747 224.292C691.277 223.822 691.013 223.184 691.013 222.519C691.013 221.855 691.277 221.217 691.747 220.747C692.217 220.277 692.855 220.013 693.519 220.013Z" fill="black"/>
<path id="PA" d="M775.448 212.551C777.457 210.036 782.039 203.942 782.039 200.519C782.039 196.368 778.671 193 774.519 193C770.368 193 767 196.368 767 200.519C767 203.942 771.582 210.036 773.591 212.551C774.073 213.15 774.966 213.15 775.448 212.551ZM774.519 198.013C775.184 198.013 775.822 198.277 776.292 198.747C776.762 199.217 777.026 199.855 777.026 200.519C777.026 201.184 776.762 201.822 776.292 202.292C775.822 202.762 775.184 203.026 774.519 203.026C773.855 203.026 773.217 202.762 772.747 202.292C772.277 201.822 772.013 201.184 772.013 200.519C772.013 199.855 772.277 199.217 772.747 198.747C773.217 198.277 773.855 198.013 774.519 198.013Z" fill="black"/>
<path id="NY" d="M807.448 158.551C809.457 156.036 814.039 149.942 814.039 146.519C814.039 142.368 810.671 139 806.519 139C802.368 139 799 142.368 799 146.519C799 149.942 803.582 156.036 805.591 158.551C806.073 159.15 806.966 159.15 807.448 158.551ZM806.519 144.013C807.184 144.013 807.822 144.277 808.292 144.747C808.762 145.217 809.026 145.855 809.026 146.519C809.026 147.184 808.762 147.822 808.292 148.292C807.822 148.762 807.184 149.026 806.519 149.026C805.855 149.026 805.217 148.762 804.747 148.292C804.277 147.822 804.013 147.184 804.013 146.519C804.013 145.855 804.277 145.217 804.747 144.747C805.217 144.277 805.855 144.013 806.519 144.013Z" fill="black"/>
<path id="VT" d="M843.448 123.551C845.457 121.036 850.039 114.942 850.039 111.519C850.039 107.368 846.671 104 842.519 104C838.368 104 835 107.368 835 111.519C835 114.942 839.582 121.036 841.591 123.551C842.073 124.15 842.966 124.15 843.448 123.551ZM842.519 109.013C843.184 109.013 843.822 109.277 844.292 109.747C844.762 110.217 845.026 110.855 845.026 111.519C845.026 112.184 844.762 112.822 844.292 113.292C843.822 113.762 843.184 114.026 842.519 114.026C841.855 114.026 841.217 113.762 840.747 113.292C840.277 112.822 840.013 112.184 840.013 111.519C840.013 110.855 840.277 110.217 840.747 109.747C841.217 109.277 841.855 109.013 842.519 109.013Z" fill="black"/>
<path id="NH" d="M861.448 126.551C863.457 124.036 868.039 117.942 868.039 114.519C868.039 110.368 864.671 107 860.519 107C856.368 107 853 110.368 853 114.519C853 117.942 857.582 124.036 859.591 126.551C860.073 127.15 860.966 127.15 861.448 126.551ZM860.519 112.013C861.184 112.013 861.822 112.277 862.292 112.747C862.762 113.217 863.026 113.855 863.026 114.519C863.026 115.184 862.762 115.822 862.292 116.292C861.822 116.762 861.184 117.026 860.519 117.026C859.855 117.026 859.217 116.762 858.747 116.292C858.277 115.822 858.013 115.184 858.013 114.519C858.013 113.855 858.277 113.217 858.747 112.747C859.217 112.277 859.855 112.013 860.519 112.013Z" fill="black"/>
<path id="MA" d="M861.448 152.551C863.457 150.036 868.039 143.942 868.039 140.519C868.039 136.368 864.671 133 860.519 133C856.368 133 853 136.368 853 140.519C853 143.942 857.582 150.036 859.591 152.551C860.073 153.15 860.966 153.15 861.448 152.551ZM860.519 138.013C861.184 138.013 861.822 138.277 862.292 138.747C862.762 139.217 863.026 139.855 863.026 140.519C863.026 141.184 862.762 141.822 862.292 142.292C861.822 142.762 861.184 143.026 860.519 143.026C859.855 143.026 859.217 142.762 858.747 142.292C858.277 141.822 858.013 141.184 858.013 140.519C858.013 139.855 858.277 139.217 858.747 138.747C859.217 138.277 859.855 138.013 860.519 138.013Z" fill="black"/>
<path id="CT" d="M854.448 168.551C856.457 166.036 861.039 159.942 861.039 156.519C861.039 152.368 857.671 149 853.519 149C849.368 149 846 152.368 846 156.519C846 159.942 850.582 166.036 852.591 168.551C853.073 169.15 853.966 169.15 854.448 168.551ZM853.519 154.013C854.184 154.013 854.822 154.277 855.292 154.747C855.762 155.217 856.026 155.855 856.026 156.519C856.026 157.184 855.762 157.822 855.292 158.292C854.822 158.762 854.184 159.026 853.519 159.026C852.855 159.026 852.217 158.762 851.747 158.292C851.277 157.822 851.013 157.184 851.013 156.519C851.013 155.855 851.277 155.217 851.747 154.747C852.217 154.277 852.855 154.013 853.519 154.013Z" fill="black"/>
<path id="RI" d="M873.448 164.551C875.457 162.036 880.039 155.942 880.039 152.519C880.039 148.368 876.671 145 872.519 145C868.368 145 865 148.368 865 152.519C865 155.942 869.582 162.036 871.591 164.551C872.073 165.15 872.966 165.15 873.448 164.551ZM872.519 150.013C873.184 150.013 873.822 150.277 874.292 150.747C874.762 151.217 875.026 151.855 875.026 152.519C875.026 153.184 874.762 153.822 874.292 154.292C873.822 154.762 873.184 155.026 872.519 155.026C871.855 155.026 871.217 154.762 870.747 154.292C870.277 153.822 870.013 153.184 870.013 152.519C870.013 151.855 870.277 151.217 870.747 150.747C871.217 150.277 871.855 150.013 872.519 150.013Z" fill="black"/>
<path id="NJ" d="M836.448 212.551C838.457 210.036 843.039 203.942 843.039 200.519C843.039 196.368 839.671 193 835.519 193C831.368 193 828 196.368 828 200.519C828 203.942 832.582 210.036 834.591 212.551C835.073 213.15 835.966 213.15 836.448 212.551ZM835.519 198.013C836.184 198.013 836.822 198.277 837.292 198.747C837.762 199.217 838.026 199.855 838.026 200.519C838.026 201.184 837.762 201.822 837.292 202.292C836.822 202.762 836.184 203.026 835.519 203.026C834.855 203.026 834.217 202.762 833.747 202.292C833.277 201.822 833.013 201.184 833.013 200.519C833.013 199.855 833.277 199.217 833.747 198.747C834.217 198.277 834.855 198.013 835.519 198.013Z" fill="black"/>
<path id="MD" d="M801.448 234.551C803.457 232.036 808.039 225.942 808.039 222.519C808.039 218.368 804.671 215 800.519 215C796.368 215 793 218.368 793 222.519C793 225.942 797.582 232.036 799.591 234.551C800.073 235.15 800.966 235.15 801.448 234.551ZM800.519 220.013C801.184 220.013 801.822 220.277 802.292 220.747C802.762 221.217 803.026 221.855 803.026 222.519C803.026 223.184 802.762 223.822 802.292 224.292C801.822 224.762 801.184 225.026 800.519 225.026C799.855 225.026 799.217 224.762 798.747 224.292C798.277 223.822 798.013 223.184 798.013 222.519C798.013 221.855 798.277 221.217 798.747 220.747C799.217 220.277 799.855 220.013 800.519 220.013Z" fill="black"/>
<path id="DC" d="M801.448 241.551C803.457 239.036 808.039 232.942 808.039 229.519C808.039 225.368 804.671 222 800.519 222C796.368 222 793 225.368 793 229.519C793 232.942 797.582 239.036 799.591 241.551C800.073 242.15 800.966 242.15 801.448 241.551ZM800.519 227.013C801.184 227.013 801.822 227.277 802.292 227.747C802.762 228.217 803.026 228.855 803.026 229.519C803.026 230.184 802.762 230.822 802.292 231.292C801.822 231.762 801.184 232.026 800.519 232.026C799.855 232.026 799.217 231.762 798.747 231.292C798.277 230.822 798.013 230.184 798.013 229.519C798.013 228.855 798.277 228.217 798.747 227.747C799.217 227.277 799.855 227.013 800.519 227.013Z" fill="black"/>
<path id="DE" d="M826.448 238.551C828.457 236.036 833.039 229.942 833.039 226.519C833.039 222.368 829.671 219 825.519 219C821.368 219 818 222.368 818 226.519C818 229.942 822.582 236.036 824.591 238.551C825.073 239.15 825.966 239.15 826.448 238.551ZM825.519 224.013C826.184 224.013 826.822 224.277 827.292 224.747C827.762 225.217 828.026 225.855 828.026 226.519C828.026 227.184 827.762 227.822 827.292 228.292C826.822 228.762 826.184 229.026 825.519 229.026C824.855 229.026 824.217 228.762 823.747 228.292C823.277 227.822 823.013 227.184 823.013 226.519C823.013 225.855 823.277 225.217 823.747 224.747C824.217 224.277 824.855 224.013 825.519 224.013Z" fill="black"/>
<path id="VA" d="M786.448 278.551C788.457 276.036 793.039 269.942 793.039 266.519C793.039 262.368 789.671 259 785.519 259C781.368 259 778 262.368 778 266.519C778 269.942 782.582 276.036 784.591 278.551C785.073 279.15 785.966 279.15 786.448 278.551ZM785.519 264.013C786.184 264.013 786.822 264.277 787.292 264.747C787.762 265.217 788.026 265.855 788.026 266.519C788.026 267.184 787.762 267.822 787.292 268.292C786.822 268.762 786.184 269.026 785.519 269.026C784.855 269.026 784.217 268.762 783.747 268.292C783.277 267.822 783.013 267.184 783.013 266.519C783.013 265.855 783.277 265.217 783.747 264.747C784.217 264.277 784.855 264.013 785.519 264.013Z" fill="black"/>
<path id="KY" d="M664.448 298.551C666.457 296.036 671.039 289.942 671.039 286.519C671.039 282.368 667.671 279 663.519 279C659.368 279 656 282.368 656 286.519C656 289.942 660.582 296.036 662.591 298.551C663.073 299.15 663.966 299.15 664.448 298.551ZM663.519 284.013C664.184 284.013 664.822 284.277 665.292 284.747C665.762 285.217 666.026 285.855 666.026 286.519C666.026 287.184 665.762 287.822 665.292 288.292C664.822 288.762 664.184 289.026 663.519 289.026C662.855 289.026 662.217 288.762 661.747 288.292C661.277 287.822 661.013 287.184 661.013 286.519C661.013 285.855 661.277 285.217 661.747 284.747C662.217 284.277 662.855 284.013 663.519 284.013Z" fill="black"/>
<path id="TN" d="M649.448 333.551C651.457 331.036 656.039 324.942 656.039 321.519C656.039 317.368 652.671 314 648.519 314C644.368 314 641 317.368 641 321.519C641 324.942 645.582 331.036 647.591 333.551C648.073 334.15 648.966 334.15 649.448 333.551ZM648.519 319.013C649.184 319.013 649.822 319.277 650.292 319.747C650.762 320.217 651.026 320.855 651.026 321.519C651.026 322.184 650.762 322.822 650.292 323.292C649.822 323.762 649.184 324.026 648.519 324.026C647.855 324.026 647.217 323.762 646.747 323.292C646.277 322.822 646.013 322.184 646.013 321.519C646.013 320.855 646.277 320.217 646.747 319.747C647.217 319.277 647.855 319.013 648.519 319.013Z" fill="black"/>
<path id="NC" d="M775.448 323.551C777.457 321.036 782.039 314.942 782.039 311.519C782.039 307.368 778.671 304 774.519 304C770.368 304 767 307.368 767 311.519C767 314.942 771.582 321.036 773.591 323.551C774.073 324.15 774.966 324.15 775.448 323.551ZM774.519 309.013C775.184 309.013 775.822 309.277 776.292 309.747C776.762 310.217 777.026 310.855 777.026 311.519C777.026 312.184 776.762 312.822 776.292 313.292C775.822 313.762 775.184 314.026 774.519 314.026C773.855 314.026 773.217 313.762 772.747 313.292C772.277 312.822 772.013 312.184 772.013 311.519C772.013 310.855 772.277 310.217 772.747 309.747C773.217 309.277 773.855 309.013 774.519 309.013Z" fill="black"/>
<path id="SC" d="M756.448 370.551C758.457 368.036 763.039 361.942 763.039 358.519C763.039 354.368 759.671 351 755.519 351C751.368 351 748 354.368 748 358.519C748 361.942 752.582 368.036 754.591 370.551C755.073 371.15 755.966 371.15 756.448 370.551ZM755.519 356.013C756.184 356.013 756.822 356.277 757.292 356.747C757.762 357.217 758.026 357.855 758.026 358.519C758.026 359.184 757.762 359.822 757.292 360.292C756.822 360.762 756.184 361.026 755.519 361.026C754.855 361.026 754.217 360.762 753.747 360.292C753.277 359.822 753.013 359.184 753.013 358.519C753.013 357.855 753.277 357.217 753.747 356.747C754.217 356.277 754.855 356.013 755.519 356.013Z" fill="black"/>
<path id="GA" d="M709.448 395.551C711.457 393.036 716.039 386.942 716.039 383.519C716.039 379.368 712.671 376 708.519 376C704.368 376 701 379.368 701 383.519C701 386.942 705.582 393.036 707.591 395.551C708.073 396.15 708.966 396.15 709.448 395.551ZM708.519 381.013C709.184 381.013 709.822 381.277 710.292 381.747C710.762 382.217 711.026 382.855 711.026 383.519C711.026 384.184 710.762 384.822 710.292 385.292C709.822 385.762 709.184 386.026 708.519 386.026C707.855 386.026 707.217 385.762 706.747 385.292C706.277 384.822 706.013 384.184 706.013 383.519C706.013 382.855 706.277 382.217 706.747 381.747C707.217 381.277 707.855 381.013 708.519 381.013Z" fill="black"/>
<path id="MS" d="M601.448 411.551C603.457 409.036 608.039 402.942 608.039 399.519C608.039 395.368 604.671 392 600.519 392C596.368 392 593 395.368 593 399.519C593 402.942 597.582 409.036 599.591 411.551C600.073 412.15 600.966 412.15 601.448 411.551ZM600.519 397.013C601.184 397.013 601.822 397.277 602.292 397.747C602.762 398.217 603.026 398.855 603.026 399.519C603.026 400.184 602.762 400.822 602.292 401.292C601.822 401.762 601.184 402.026 600.519 402.026C599.855 402.026 599.217 401.762 598.747 401.292C598.277 400.822 598.013 400.184 598.013 399.519C598.013 398.855 598.277 398.217 598.747 397.747C599.217 397.277 599.855 397.013 600.519 397.013Z" fill="black"/>
<path id="AL" d="M649.448 395.551C651.457 393.036 656.039 386.942 656.039 383.519C656.039 379.368 652.671 376 648.519 376C644.368 376 641 379.368 641 383.519C641 386.942 645.582 393.036 647.591 395.551C648.073 396.15 648.966 396.15 649.448 395.551ZM648.519 381.013C649.184 381.013 649.822 381.277 650.292 381.747C650.762 382.217 651.026 382.855 651.026 383.519C651.026 384.184 650.762 384.822 650.292 385.292C649.822 385.762 649.184 386.026 648.519 386.026C647.855 386.026 647.217 385.762 646.747 385.292C646.277 384.822 646.013 384.184 646.013 383.519C646.013 382.855 646.277 382.217 646.747 381.747C647.217 381.277 647.855 381.013 648.519 381.013Z" fill="black"/>
<path id="FL" d="M760.448 487.551C762.457 485.036 767.039 478.942 767.039 475.519C767.039 471.368 763.671 468 759.519 468C755.368 468 752 471.368 752 475.519C752 478.942 756.582 485.036 758.591 487.551C759.073 488.15 759.966 488.15 760.448 487.551ZM759.519 473.013C760.184 473.013 760.822 473.277 761.292 473.747C761.762 474.217 762.026 474.855 762.026 475.519C762.026 476.184 761.762 476.822 761.292 477.292C760.822 477.762 760.184 478.026 759.519 478.026C758.855 478.026 758.217 477.762 757.747 477.292C757.277 476.822 757.013 476.184 757.013 475.519C757.013 474.855 757.277 474.217 757.747 473.747C758.217 473.277 758.855 473.013 759.519 473.013Z" fill="black"/>
<path id="WV" d="M741.448 268.551C743.457 266.036 748.039 259.942 748.039 256.519C748.039 252.368 744.671 249 740.519 249C736.368 249 733 252.368 733 256.519C733 259.942 737.582 266.036 739.591 268.551C740.073 269.15 740.966 269.15 741.448 268.551ZM740.519 254.013C741.184 254.013 741.822 254.277 742.292 254.747C742.762 255.217 743.026 255.855 743.026 256.519C743.026 257.184 742.762 257.822 742.292 258.292C741.822 258.762 741.184 259.026 740.519 259.026C739.855 259.026 739.217 258.762 738.747 258.292C738.277 257.822 738.013 257.184 738.013 256.519C738.013 255.855 738.277 255.217 738.747 254.747C739.217 254.277 739.855 254.013 740.519 254.013Z" fill="black"/>
<path id="ME" d="M885.448 86.5506C887.457 84.0363 892.039 77.9424 892.039 74.5195C892.039 70.3681 888.671 67 884.519 67C880.368 67 877 70.3681 877 74.5195C877 77.9424 881.582 84.0363 883.591 86.5506C884.073 87.1498 884.966 87.1498 885.448 86.5506ZM884.519 72.013C885.184 72.013 885.822 72.277 886.292 72.7471C886.762 73.2172 887.026 73.8547 887.026 74.5195C887.026 75.1842 886.762 75.8218 886.292 76.2918C885.822 76.7619 885.184 77.0259 884.519 77.0259C883.855 77.0259 883.217 76.7619 882.747 76.2918C882.277 75.8218 882.013 75.1842 882.013 74.5195C882.013 73.8547 882.277 73.2172 882.747 72.7471C883.217 72.277 883.855 72.013 884.519 72.013Z" fill="black"/>
<path id="MN" d="M500.448 124.551C502.457 122.036 507.039 115.942 507.039 112.519C507.039 108.368 503.671 105 499.519 105C495.368 105 492 108.368 492 112.519C492 115.942 496.582 122.036 498.591 124.551C499.073 125.15 499.966 125.15 500.448 124.551ZM499.519 110.013C500.184 110.013 500.822 110.277 501.292 110.747C501.762 111.217 502.026 111.855 502.026 112.519C502.026 113.184 501.762 113.822 501.292 114.292C500.822 114.762 500.184 115.026 499.519 115.026C498.855 115.026 498.217 114.762 497.747 114.292C497.277 113.822 497.013 113.184 497.013 112.519C497.013 111.855 497.277 111.217 497.747 110.747C498.217 110.277 498.855 110.013 499.519 110.013Z" fill="black"/>
</svg>
